<svg width="139" height="37" viewBox="0 0 139 37" fill="none" xmlns="http://www.w3.org/2000/svg">
<path d="M121.528 36.5644C131.178 36.5644 139.001 28.5609 139.001 18.688C139.001 8.81508 131.178 0.811523 121.528 0.811523C111.878 0.811523 104.056 8.81508 104.056 18.688C104.056 28.5609 111.878 36.5644 121.528 36.5644Z" fill="white"/>
<path d="M131.222 12.5662C130.624 12.8111 129.906 13.0559 129.308 13.1784C129.667 13.1784 130.026 12.5662 130.265 12.3213C130.504 11.954 130.744 11.5866 130.863 11.0969V10.9744H130.744C130.026 11.3418 129.308 11.7091 128.47 11.8315C128.35 11.8315 128.35 11.8315 128.35 11.8315C128.231 11.7091 128.231 11.7091 128.111 11.5866C127.752 11.3418 127.393 11.0969 127.034 10.852C126.555 10.6071 125.957 10.4847 125.358 10.6071C124.76 10.6071 124.281 10.852 123.803 11.0969C123.324 11.3418 122.845 11.7091 122.486 12.1989C122.127 12.6886 121.888 13.1784 121.768 13.7906C121.648 14.4028 121.648 14.8926 121.768 15.5048C121.768 15.6272 121.768 15.6272 121.648 15.6272C118.537 15.1374 115.904 14.0355 113.75 11.5866C113.63 11.4642 113.63 11.4642 113.511 11.5866C112.553 13.0559 113.032 15.2599 114.229 16.3619C114.348 16.4843 114.588 16.6067 114.707 16.8516C114.588 16.8516 113.87 16.7292 113.152 16.3619C113.032 16.3619 113.032 16.3619 113.032 16.4843C113.032 16.6067 113.032 16.7292 113.032 16.9741C113.152 18.4434 114.229 19.7902 115.545 20.28C115.665 20.4024 115.904 20.4024 116.024 20.4024C115.665 20.5249 115.425 20.5249 114.588 20.4024C114.468 20.4024 114.468 20.4024 114.468 20.5249C115.066 22.3615 116.502 22.8513 117.58 23.2186C117.699 23.2186 117.819 23.2186 118.058 23.2186C117.699 23.7083 116.502 24.1981 115.904 24.3206C114.827 24.6879 113.75 24.8103 112.673 24.6879C112.553 24.6879 112.434 24.6879 112.434 24.6879V24.8103C112.673 24.9328 112.912 25.0552 113.152 25.1776C113.87 25.545 114.588 25.9123 115.306 26.0347C119.255 27.1367 123.563 26.2796 126.555 23.341C128.829 21.0146 129.667 17.8312 129.667 14.5252C129.667 14.4028 129.786 14.2804 129.906 14.2804C130.504 13.7906 130.983 13.3008 131.462 12.6886C131.222 12.8111 131.222 12.6886 131.222 12.5662Z" fill="#062D3E"/>
<path d="M69.5027 36.5644C79.1525 36.5644 86.9751 28.5609 86.9751 18.688C86.9751 8.81508 79.1525 0.811523 69.5027 0.811523C59.8529 0.811523 52.0303 8.81508 52.0303 18.688C52.0303 28.5609 59.8529 36.5644 69.5027 36.5644Z" fill="white"/>
<path d="M74.8892 11.952C74.1711 11.952 73.6924 12.4418 73.6924 13.1764C73.6924 13.9111 74.2908 14.4009 74.8892 14.4009C75.6072 14.4009 76.0859 13.9111 76.0859 13.1764C76.0859 12.5642 75.6072 11.952 74.8892 11.952Z" fill="#062D3E"/>
<path d="M69.6231 13.5468C66.8706 13.5468 64.5967 15.8731 64.5967 18.6893C64.5967 21.5054 66.8706 23.8318 69.6231 23.8318C72.3756 23.8318 74.6494 21.5054 74.6494 18.6893C74.6494 15.8731 72.3756 13.5468 69.6231 13.5468ZM69.6231 21.9952C67.8279 21.9952 66.3919 20.5259 66.3919 18.6893C66.3919 16.8527 67.8279 15.3834 69.6231 15.3834C71.4182 15.3834 72.8543 16.8527 72.8543 18.6893C72.8543 20.5259 71.4182 21.9952 69.6231 21.9952Z" fill="#062D3E"/>
<path d="M73.5733 29.2187H65.4355C62.0846 29.2187 59.3321 26.4026 59.3321 22.9742V14.6482C59.3321 11.2198 62.0846 8.40369 65.4355 8.40369H73.5733C76.9242 8.40369 79.6767 11.2198 79.6767 14.6482V22.8518C79.7964 26.4026 77.0439 29.2187 73.5733 29.2187ZM65.4355 10.2403C63.042 10.2403 61.2469 12.1994 61.2469 14.5258V22.8518C61.2469 25.3006 63.1617 27.1372 65.4355 27.1372H73.5733C75.9668 27.1372 77.7619 25.1782 77.7619 22.8518V14.5258C77.7619 12.0769 75.8471 10.2403 73.5733 10.2403H65.4355Z" fill="#062D3E"/>
<path d="M34.9449 18.688C34.9449 8.77021 27.166 0.811523 17.4724 0.811523C7.77882 0.811523 0 8.77021 0 18.688C0 27.6262 6.34273 35.0951 14.7199 36.442V23.8305H10.292V18.688H14.7199V14.7698C14.7199 10.2395 17.3528 7.79068 21.302 7.79068C23.2168 7.79068 25.2513 8.15801 25.2513 8.15801V12.5659H23.0971C20.943 12.5659 20.2249 13.9128 20.2249 15.382V18.688H25.1316L24.4135 23.8305H20.3446V36.3195C28.6021 35.0951 34.9449 27.6262 34.9449 18.688Z" fill="white"/>
<path d="M24.2969 23.8329L25.0149 18.6904H20.1083V15.3845C20.1083 13.9152 20.8263 12.5683 22.9804 12.5683H25.1346V8.16042C25.1346 8.16042 23.1001 7.79309 21.1853 7.79309C17.2361 7.79309 14.6033 10.2419 14.6033 14.7722V18.6904H10.295V23.8329H14.7229V36.3219C15.5606 36.4444 16.518 36.5668 17.4754 36.5668C18.4328 36.5668 19.2705 36.4444 20.2279 36.3219V23.8329H24.2969Z" fill="#062D3E"/>
</svg>
